<svg id="Layer_2" data-name="Layer 2" xmlns="http://www.w3.org/2000/svg" viewBox="0 0 453.84 383.95"><title>drinks-black</title><path d="M167.5,261.23q0,22.2-19,40.26-18.6,17.76-41,17.77H72.81L97.55,227h34.58q15.24,0,25.31,9.39Q167.51,246,167.5,261.23ZM146,266.57a18.2,18.2,0,0,0-5.51-13.67q-5.44-5.11-13.89-5.11H112.73L99.18,298.51H113q12.43,0,22.61-9.84Q146,278.83,146,266.57Z" transform="translate(-72.81 -74.48)"/><path d="M256.63,252.57q0,15.8-12.77,28.9-12.48,12.7-28.45,14.51l23.11,31.37L220,342.14,186.23,296.2,180,319.26H159.23L184,227h46.11q11.68,0,19,7Q256.62,241.09,256.63,252.57Zm-21.54,5.62a10.09,10.09,0,0,0-10.51-10.4H199.21l-7.42,27.66h25.36q6.58,0,12.26-5.34T235.09,258.19Z" transform="translate(-72.81 -74.48)"/><path d="M228.68,458.43H207.93l87-318.43h20.75Z" transform="translate(-72.81 -74.48)"/><path d="M310.35,153.9,294.94,140,398.7,74.48l15.41,13.9Z" transform="translate(-72.81 -74.48)"/><path d="M361.67,319.26H340.86l-24.57-54.32-14.62,54.32H280.92L305.66,227h20.75L351,281.3,365.6,227h20.75Z" transform="translate(-72.81 -74.48)"/><path d="M427.4,278.88l35.82,48.59-18.61,14.67-35.77-48.58-10.18,8.1-4.77,17.6H373.14L397.88,227h20.75L406.48,272.3,464,227l10.68,14.67Z" transform="translate(-72.81 -74.48)"/><path d="M524.34,243.18a43.54,43.54,0,0,0-10.8,1.35q-7.25,2-8.32,5.56a18.48,18.48,0,0,0-.62,4.78q0,5.34,3.83,17.49t3.82,18.56q0,25-33.91,31.82a73.58,73.58,0,0,1-12,1.52l1.07-21.14q18.33-.51,20.3-6.92a18.8,18.8,0,0,0,.67-5.45q0-5.75-3.82-17.66T480.7,255q0-24.61,33.91-31.65a69.16,69.16,0,0,1,12-1.52Z" transform="translate(-72.81 -74.48)"/><polygon points="30.23 142.88 453.84 142.25 432.5 123.3 47.7 123.3 30.23 142.88"/></svg>